<svg viewBox="0 0 64 54" fill="none" stroke="black" xmlns="http://www.w3.org/2000/svg">

<path fill-rule="evenodd" clip-rule="evenodd" d="M0 54.3636V0H21.6591C23.3189 0 26.37 0.000191808 26.37 0.000191808L63.6541 0V11.1278H40.2638C41.0431 13.2382 41.4261 15.5681 41.4261 18.1051C41.4261 19.3228 41.3377 20.49 41.1593 21.6051H61.8388V32.733H39.441V43.2358H63.7564V54.3636H26.37V48.5591L19.553 35.8011H13.071V54.3636H0ZM12.071 34.8011H20.1524L27.37 48.3087V53.3636H62.7564V44.2358H38.441V31.733H60.8388V22.6051H39.9478C40.0226 22.2775 40.0887 21.9441 40.1459 21.6051C40.3327 20.499 40.4261 19.3323 40.4261 18.1051C40.4261 15.8024 40.0978 13.6997 39.441 11.7971C39.363 11.5712 39.2804 11.3481 39.1932 11.1278C39.0585 10.7878 38.9128 10.4545 38.7561 10.1278H62.6541V1H27.37C27.37 1 23.3333 1 21.6591 1H1V53.3636H12.071V34.8011ZM27.37 12.8375C27.0778 12.488 26.7445 12.1711 26.37 11.8867C25.9168 11.5425 25.4033 11.246 24.8295 10.9972C23.4318 10.3665 21.6676 10.0511 19.5369 10.0511H12.071V25.9034H19.5881C21.7017 25.9034 23.4574 25.6136 24.8551 25.0341C25.4182 24.8006 25.9231 24.5202 26.37 24.1926C26.744 23.9185 27.0774 23.6115 27.37 23.2715V12.8375ZM26.37 13.2197C25.8639 12.694 25.2231 12.2579 24.4316 11.9146L24.4249 11.9117L24.4183 11.9087C23.1898 11.3544 21.5775 11.0511 19.5369 11.0511H13.071V24.9034H19.5881C21.6188 24.9034 23.2337 24.6238 24.4721 24.1103C25.2448 23.79 25.8721 23.3786 26.37 22.88V13.2197Z" fill="none" />

</svg>
